<?xml version="1.0" encoding="utf-8"?>
<!-- Generator: Adobe Illustrator 26.0.2, SVG Export Plug-In . SVG Version: 6.00 Build 0)  -->
<svg version="1.1" id="Ebene_1" xmlns="http://www.w3.org/2000/svg" xmlns:xlink="http://www.w3.org/1999/xlink" x="0px" y="0px"
	 viewBox="0 0 200 23.74" style="enable-background:new 0 0 200 23.74;" xml:space="preserve">
<style type="text/css">
	.st0{fill:url(#SVGID_1_);}
	.st1{fill:#FFFFFF;}
</style>
<linearGradient id="SVGID_1_" gradientUnits="userSpaceOnUse" x1="-5.342639e-03" y1="14.1345" x2="65.78" y2="14.1345" gradientTransform="matrix(1 0 0 -1 0 26)">
	<stop  offset="0" style="stop-color:#F96935"/>
	<stop  offset="0.4435" style="stop-color:#FFA420"/>
	<stop  offset="1" style="stop-color:#FDD31D"/>
</linearGradient>
<path class="st0" d="M24.59,20.32c0.6,1.13,0.17,2.54-0.96,3.14c-1.14,0.6-2.54,0.17-3.14-0.96L12.43,7.33L4.37,22.5
	c-0.42,0.78-1.22,1.23-2.05,1.23c-0.37,0-0.74-0.09-1.09-0.27c-1.13-0.6-1.57-2.01-0.96-3.14L10.38,1.29c0.8-1.52,3.3-1.52,4.1,0
	L24.59,20.32z M53.91,0h-7.64c-1.28,0-2.32,1.04-2.32,2.32s1.04,2.32,2.32,2.32h7.64c3.98,0,7.22,3.24,7.22,7.22
	s-3.3,7.22-7.36,7.22c-1.28,0-2.32,1.04-2.32,2.32s1.04,2.32,2.32,2.32c6.62,0,12.01-5.32,12.01-11.87S60.45,0,53.91,0z
	 M39.11,12.47c1.53-1.3,2.52-3.21,2.52-5.36c0-3.92-3.19-7.11-7.11-7.11H21.73c-1.28,0-2.32,1.04-2.32,2.32s1.04,2.32,2.32,2.32
	h12.78c1.36,0,2.47,1.1,2.47,2.46c0,1.34-1.16,2.46-2.53,2.46h-7.9c-0.82,0-1.57,0.43-1.99,1.13s-0.44,1.57-0.06,2.29l5.06,9.46
	c0.42,0.78,1.22,1.23,2.05,1.23c0.37,0,0.74-0.09,1.09-0.27c1.13-0.61,1.56-2.01,0.95-3.14l-3.23-6.04h3.54l10.69,8.92
	c0.43,0.36,0.96,0.54,1.49,0.54c0.67,0,1.33-0.28,1.79-0.83c0.82-0.98,0.69-2.45-0.29-3.27L39.11,12.47z"/>
<path class="st1" d="M150.95,10.79c-1.05-0.49-2.28-0.74-3.67-0.74c-0.54,0-1.09,0.02-1.64,0.06c-0.56,0.04-1.07,0.14-1.51,0.28
	c-0.27,0.08-0.47,0.2-0.62,0.35c-0.17,0.17-0.26,0.41-0.26,0.71v10.63c0,0.41,0.19,0.95,1.07,1.23c0.51,0.16,1.07,0.26,1.65,0.29
	c0.56,0.03,1.06,0.05,1.5,0.05c1.38,0,2.59-0.25,3.61-0.75c1.03-0.51,1.85-1.29,2.42-2.32c0.56-1.03,0.85-2.33,0.85-3.87
	c0-1.47-0.3-2.71-0.9-3.69C152.85,12.04,152.01,11.29,150.95,10.79z M150.89,20.42c-0.76,0.82-1.92,1.24-3.45,1.24
	c-0.39,0-0.77-0.01-1.15-0.04c-0.28-0.02-0.55-0.06-0.8-0.11v-9.37c0.2-0.03,0.42-0.06,0.65-0.08c0.32-0.03,0.69-0.04,1.11-0.04
	c0.89,0,1.71,0.16,2.44,0.48c0.71,0.31,1.28,0.81,1.71,1.48c0.44,0.69,0.65,1.6,0.65,2.72C152.05,18.34,151.66,19.59,150.89,20.42z
	 M84.43,11.16c0,0.19-0.03,0.36-0.08,0.52c-0.05,0.15-0.13,0.29-0.22,0.4c-0.18-0.04-0.42-0.07-0.72-0.11
	c-0.3-0.04-0.59-0.06-0.89-0.06c-0.86,0-1.61,0.08-2.26,0.26c-0.66,0.18-1.19,0.39-1.62,0.63v3.45v0.95v6.03
	c-0.09,0.03-0.23,0.07-0.42,0.12c-0.18,0.05-0.39,0.07-0.61,0.07c-0.39,0-0.69-0.08-0.89-0.24c-0.21-0.16-0.31-0.42-0.31-0.77V17.2
	v-1.28v-2.95c0-0.43,0.08-0.77,0.24-1.02c0.15-0.25,0.42-0.5,0.79-0.74c0.48-0.31,1.14-0.59,1.98-0.82
	c0.84-0.23,1.77-0.35,2.79-0.35C83.7,10.04,84.44,10.41,84.43,11.16z M95.24,10.76c-0.86-0.48-1.86-0.72-3-0.72
	c-0.89,0-1.72,0.15-2.48,0.46s-1.42,0.75-1.96,1.32c-0.55,0.58-0.98,1.28-1.28,2.11c-0.31,0.83-0.46,1.77-0.46,2.83
	c0,1.49,0.28,2.75,0.85,3.78c0.57,1.03,1.37,1.81,2.43,2.33c1.05,0.52,2.29,0.78,3.72,0.78c0.82,0,1.56-0.09,2.22-0.28
	c0.66-0.19,1.19-0.43,1.59-0.74c0.4-0.31,0.6-0.64,0.6-0.99c0-0.22-0.06-0.42-0.18-0.6s-0.28-0.33-0.49-0.46
	c-0.37,0.3-0.87,0.58-1.51,0.84c-0.63,0.26-1.34,0.39-2.12,0.39c-1.47,0-2.63-0.38-3.47-1.16c-0.67-0.61-1.1-1.44-1.32-2.49
	l8.59-1.2c0.33-0.04,0.59-0.14,0.78-0.32c0.19-0.18,0.28-0.47,0.28-0.88c0-1.12-0.25-2.1-0.74-2.97
	C96.78,11.92,96.11,11.25,95.24,10.76z M88.25,16.4c0.04-1.42,0.4-2.53,1.11-3.31c0.75-0.83,1.71-1.24,2.86-1.24
	c1.11,0,1.99,0.33,2.62,0.99c0.63,0.66,0.98,1.5,1.06,2.52L88.25,16.4z M110.95,11.21c0.97,0.77,1.46,1.96,1.46,3.58v1.31v1.53v5.6
	c-0.09,0.03-0.23,0.07-0.43,0.12c-0.2,0.05-0.4,0.07-0.6,0.07c-0.41,0-0.71-0.08-0.91-0.24c-0.19-0.16-0.29-0.42-0.29-0.77v-4.79
	v-1.53v-1.2c0-1.04-0.29-1.81-0.88-2.29c-0.59-0.48-1.38-0.72-2.36-0.72c-0.74,0-1.4,0.1-1.98,0.28c-0.58,0.19-1.07,0.4-1.48,0.64
	v3.31v1.53v5.6c-0.09,0.03-0.23,0.07-0.42,0.12c-0.18,0.05-0.39,0.07-0.61,0.07c-0.39,0-0.69-0.08-0.89-0.24
	c-0.21-0.16-0.31-0.42-0.31-0.77v-4.79V16.1v-3.18c0-0.39,0.08-0.71,0.24-0.96c0.16-0.25,0.43-0.5,0.82-0.74
	c0.48-0.28,1.12-0.55,1.92-0.8c0.8-0.25,1.7-0.38,2.7-0.38C108.63,10.04,109.96,10.43,110.95,11.21z M123.56,21.67
	c0.09,0.17,0.14,0.37,0.14,0.59c0,0.41-0.24,0.74-0.72,1c-0.49,0.26-1.15,0.39-2.01,0.39c-1.3,0-2.35-0.28-3.16-0.86
	c-0.81-0.57-1.21-1.53-1.21-2.87v-3.15v-0.84v-5.68c0.09-0.04,0.23-0.08,0.43-0.13c0.2-0.05,0.41-0.07,0.63-0.07
	c0.39,0,0.69,0.08,0.88,0.24c0.19,0.16,0.29,0.39,0.29,0.74v0.23h4.57c0.06,0.07,0.11,0.19,0.17,0.36c0.05,0.17,0.08,0.34,0.08,0.53
	c0,0.3-0.07,0.53-0.22,0.7c-0.14,0.17-0.35,0.25-0.61,0.25h-3.99v0.76v5.91c0,0.75,0.21,1.27,0.64,1.58
	c0.43,0.31,1.02,0.46,1.76,0.46c0.32,0,0.67-0.06,1.06-0.17c0.39-0.11,0.72-0.24,0.98-0.39C123.38,21.36,123.49,21.5,123.56,21.67z
	 M137.84,18.98c0.23-0.82,0.34-1.63,0.34-2.41c0-0.35-0.09-0.64-0.26-0.84c-0.26-0.3-0.73-0.39-1.23-0.26
	c-0.14,0.04-0.28,0.09-0.42,0.15l-0.14,0.06v0.15c0,0.85-0.07,1.62-0.21,2.28c-0.06,0.3-0.14,0.57-0.24,0.85l-3.59-3.73
	c-0.4-0.42-0.71-0.78-0.91-1.09c-0.19-0.29-0.29-0.61-0.29-0.99c0-0.37,0.12-0.65,0.37-0.85c0.26-0.22,0.62-0.32,1.08-0.32
	c0.29,0,0.57,0.04,0.85,0.11c0.27,0.08,0.51,0.17,0.72,0.28l0.12,0.07l0.12-0.07c0.14-0.09,0.26-0.2,0.36-0.36
	c0.12-0.17,0.17-0.36,0.17-0.57c0-0.4-0.23-0.73-0.68-0.98c-0.41-0.22-0.99-0.33-1.76-0.33c-0.73,0-1.36,0.12-1.87,0.37
	c-0.52,0.25-0.93,0.61-1.2,1.06c-0.27,0.45-0.41,0.98-0.41,1.58c0,0.51,0.11,0.99,0.33,1.44c0.12,0.25,0.3,0.51,0.53,0.81
	c-0.35,0.15-0.65,0.31-0.91,0.51c-0.5,0.37-0.91,0.84-1.2,1.4c-0.3,0.56-0.45,1.21-0.45,1.94c0,0.87,0.21,1.65,0.62,2.3
	c0.41,0.65,0.99,1.17,1.73,1.53c0.73,0.36,1.59,0.54,2.56,0.54c0.97,0,1.82-0.17,2.51-0.49c0.54-0.25,1.03-0.59,1.47-0.99l0.88,0.92
	c0.62,0.71,1.38,0.66,1.77,0.24c0.18-0.19,0.3-0.45,0.35-0.77l0.02-0.11l-1.78-1.85C137.48,20.03,137.69,19.52,137.84,18.98z
	 M133.52,21.42c-0.52,0.21-1.03,0.31-1.52,0.31c-0.89,0-1.59-0.23-2.08-0.69c-0.49-0.45-0.73-1.04-0.73-1.8
	c0-0.49,0.1-0.91,0.29-1.24c0.2-0.34,0.45-0.62,0.76-0.82c0.21-0.14,0.44-0.25,0.69-0.33l3.68,3.84
	C134.25,21.04,133.89,21.28,133.52,21.42z M165.84,11.16c0,0.19-0.03,0.36-0.08,0.52c-0.05,0.15-0.13,0.29-0.22,0.4
	c-0.18-0.04-0.42-0.07-0.72-0.11c-0.3-0.04-0.59-0.06-0.89-0.06c-0.86,0-1.61,0.08-2.26,0.26c-0.66,0.18-1.19,0.39-1.62,0.63v3.45
	v0.95v6.03c-0.09,0.03-0.23,0.07-0.42,0.12c-0.18,0.05-0.39,0.07-0.61,0.07c-0.39,0-0.69-0.08-0.89-0.24
	c-0.21-0.16-0.31-0.42-0.31-0.77V17.2v-1.28v-2.95c0-0.43,0.09-0.77,0.24-1.02c0.15-0.25,0.42-0.5,0.79-0.74
	c0.48-0.31,1.14-0.59,1.98-0.82c0.84-0.23,1.77-0.35,2.79-0.35C165.11,10.04,165.85,10.41,165.84,11.16z M170.55,10.29
	c0.19,0.15,0.29,0.42,0.29,0.79v4.86v1.09v6.22c-0.1,0.03-0.23,0.07-0.42,0.12c-0.18,0.05-0.39,0.07-0.61,0.07
	c-0.39,0-0.69-0.08-0.89-0.24c-0.21-0.16-0.31-0.42-0.31-0.77v-5.41v-1.09v-5.7c0.09-0.04,0.23-0.08,0.43-0.13
	c0.2-0.05,0.41-0.07,0.63-0.07C170.06,10.03,170.35,10.11,170.55,10.29z M185.62,10.39c0.19,0.16,0.29,0.4,0.29,0.72
	c0,0.25-0.11,0.7-0.31,1.37c-0.21,0.67-0.48,1.47-0.81,2.4s-0.7,1.89-1.1,2.91c-0.4,1.02-0.81,1.99-1.23,2.93
	c-0.42,0.94-0.81,1.75-1.16,2.44c-0.1,0.08-0.26,0.14-0.49,0.2c-0.23,0.05-0.48,0.08-0.74,0.08c-0.32,0-0.6-0.05-0.84-0.15
	c-0.24-0.1-0.41-0.24-0.5-0.43c-0.2-0.37-0.47-0.91-0.79-1.63c-0.33-0.72-0.68-1.53-1.05-2.44c-0.37-0.91-0.75-1.85-1.13-2.83
	c-0.39-0.98-0.73-1.92-1.05-2.82c-0.32-0.9-0.58-1.69-0.78-2.38c0.13-0.19,0.31-0.34,0.53-0.45c0.22-0.11,0.45-0.17,0.67-0.17
	c0.33,0,0.59,0.08,0.78,0.25c0.18,0.17,0.34,0.45,0.47,0.84l1.73,4.99c0.15,0.43,0.35,0.96,0.59,1.59c0.24,0.64,0.48,1.27,0.72,1.9
	c0.25,0.63,0.44,1.16,0.59,1.59h0.11c0.74-1.88,1.44-3.73,2.09-5.56c0.65-1.83,1.21-3.62,1.67-5.37c0.24-0.15,0.56-0.22,0.95-0.22
	C185.15,10.15,185.41,10.23,185.62,10.39z M199.72,16.63c0.19-0.18,0.28-0.47,0.28-0.88c0-1.12-0.25-2.1-0.74-2.97
	s-1.17-1.54-2.04-2.02c-0.86-0.48-1.86-0.72-3-0.72c-0.89,0-1.72,0.15-2.48,0.46c-0.76,0.31-1.42,0.75-1.96,1.32
	c-0.55,0.58-0.98,1.28-1.28,2.11c-0.31,0.83-0.46,1.77-0.46,2.83c0,1.49,0.28,2.75,0.85,3.78c0.57,1.03,1.37,1.81,2.43,2.33
	c1.05,0.52,2.29,0.78,3.72,0.78c0.82,0,1.56-0.09,2.22-0.28c0.66-0.19,1.19-0.43,1.59-0.74c0.4-0.31,0.6-0.64,0.6-0.99
	c0-0.22-0.06-0.42-0.18-0.6s-0.28-0.33-0.49-0.46c-0.37,0.3-0.87,0.58-1.51,0.84c-0.63,0.26-1.34,0.39-2.12,0.39
	c-1.47,0-2.63-0.38-3.47-1.16c-0.67-0.61-1.1-1.44-1.32-2.49l8.59-1.2C199.27,16.92,199.53,16.81,199.72,16.63z M190.23,16.4
	c0.04-1.42,0.4-2.53,1.11-3.31c0.75-0.83,1.71-1.24,2.86-1.24c1.11,0,1.99,0.33,2.62,0.99c0.63,0.66,0.98,1.5,1.06,2.52L190.23,16.4
	z"/>
</svg>
