<?xml version="1.0" encoding="utf-8"?>
<!-- Generator: Adobe Illustrator 26.0.2, SVG Export Plug-In . SVG Version: 6.00 Build 0)  -->
<svg version="1.1" id="Ebene_1" xmlns="http://www.w3.org/2000/svg" xmlns:xlink="http://www.w3.org/1999/xlink" x="0px" y="0px"
	 viewBox="0 0 18 18" style="enable-background:new 0 0 18 18;" xml:space="preserve">
<style type="text/css">
	.st0{fill:currentColor;}
</style>
<path class="st0" d="M15,2.33h-2V1h-1.33v1.33H6.33V1H5v1.33H3c-0.53,0-1.04,0.21-1.41,0.59C1.21,3.29,1,3.8,1,4.33V17h16V4.33
	c0-0.53-0.21-1.04-0.59-1.41S15.53,2.33,15,2.33z M2.33,4.33c0-0.18,0.07-0.35,0.2-0.47C2.65,3.74,2.82,3.67,3,3.67h12
	c0.18,0,0.35,0.07,0.47,0.2c0.12,0.13,0.2,0.29,0.2,0.47v2H2.33V4.33z M2.33,15.67v-8h13.33v8H2.33z M12.33,9.67H11V11h1.33V9.67z
	 M9.67,9.67H8.33V11h1.33V9.67z M7,9.67H5.67V11H7V9.67z M12.33,12.33H11v1.33h1.33V12.33z M9.67,12.33H8.33v1.33h1.33V12.33z
	 M7,12.33H5.67v1.33H7V12.33z"/>
</svg>
