<?xml version="1.0" encoding="utf-8"?>
<!-- Generator: Adobe Illustrator 26.0.2, SVG Export Plug-In . SVG Version: 6.00 Build 0)  -->
<svg version="1.1" id="Ebene_1" xmlns="http://www.w3.org/2000/svg" xmlns:xlink="http://www.w3.org/1999/xlink" x="0px" y="0px"
	 viewBox="0 0 18 18" style="enable-background:new 0 0 18 18;" xml:space="preserve">
<style type="text/css">
	.st0{fill:#FFA420;}
</style>
<path class="st0" d="M15,1.67H3c-0.53,0-1.04,0.21-1.41,0.59C1.21,2.63,1,3.14,1,3.67v12.67h16V3.67c0-0.53-0.21-1.04-0.59-1.41
	S15.53,1.67,15,1.67z M3,3h12c0.18,0,0.35,0.07,0.47,0.2s0.2,0.29,0.2,0.47v0.44l-5.25,5.25C10.04,9.74,9.53,9.95,9,9.95
	c-0.53,0-1.04-0.21-1.41-0.58L2.33,4.11V3.67c0-0.18,0.07-0.35,0.2-0.47C2.65,3.07,2.82,3,3,3z M2.33,15V6l4.31,4.31
	c0.63,0.62,1.47,0.97,2.36,0.97c0.88,0,1.73-0.35,2.36-0.97L15.67,6v9H2.33z"/>
</svg>
