<?xml version="1.0" encoding="utf-8"?>
<!-- Generator: Adobe Illustrator 26.0.2, SVG Export Plug-In . SVG Version: 6.00 Build 0)  -->
<svg version="1.1" id="Ebene_1" xmlns="http://www.w3.org/2000/svg" xmlns:xlink="http://www.w3.org/1999/xlink" x="0px" y="0px"
	 viewBox="0 0 18 18" style="enable-background:new 0 0 18 18;" xml:space="preserve">
<style type="text/css">
	.st0{fill:currentColor;}
</style>
<path class="st0" d="M9.65,1.67c0-0.18,0.07-0.35,0.2-0.47S10.15,1,10.32,1c1.77,0,3.47,0.71,4.72,1.96C16.29,4.21,17,5.91,17,7.68
	c0,0.18-0.07,0.35-0.2,0.47c-0.13,0.13-0.3,0.2-0.47,0.2c-0.18,0-0.35-0.07-0.47-0.2c-0.13-0.13-0.2-0.3-0.2-0.47
	c0-1.42-0.56-2.77-1.57-3.78s-2.36-1.56-3.78-1.57c-0.18,0-0.35-0.07-0.47-0.2C9.73,2.02,9.65,1.85,9.65,1.67z M10.32,5.01
	c0.71,0,1.39,0.28,1.89,0.78c0.5,0.5,0.78,1.18,0.78,1.89c0,0.18,0.07,0.35,0.2,0.47c0.13,0.13,0.3,0.2,0.47,0.2
	c0.18,0,0.35-0.07,0.47-0.2s0.2-0.3,0.2-0.47c0-1.06-0.42-2.08-1.17-2.83c-0.75-0.75-1.77-1.17-2.83-1.17
	c-0.18,0-0.35,0.07-0.47,0.2c-0.13,0.13-0.2,0.3-0.2,0.47c0,0.18,0.07,0.35,0.2,0.47C9.98,4.94,10.15,5.01,10.32,5.01z M16.39,12.18
	c0.39,0.39,0.6,0.91,0.6,1.46s-0.22,1.07-0.6,1.46l-0.61,0.7C10.32,21.04-2.99,7.73,2.16,2.25l0.77-0.67C3.32,1.2,3.84,1,4.38,1
	c0.54,0,1.06,0.22,1.44,0.61c0.02,0.02,1.26,1.63,1.26,1.63c0.37,0.39,0.57,0.9,0.57,1.43c0,0.53-0.21,1.04-0.58,1.43L6.3,7.07
	c0.43,1.04,1.06,1.98,1.85,2.78s1.74,1.43,2.78,1.86l0.98-0.78c0.38-0.37,0.9-0.57,1.43-0.57c0.53,0,1.04,0.2,1.43,0.57
	C14.77,10.92,16.37,12.16,16.39,12.18z M15.48,13.15c0,0-1.6-1.23-1.62-1.25c-0.14-0.14-0.32-0.21-0.52-0.21s-0.38,0.08-0.52,0.21
	c-0.02,0.02-1.36,1.09-1.36,1.09c-0.09,0.07-0.2,0.12-0.31,0.14c-0.11,0.02-0.23,0.01-0.34-0.04c-1.35-0.5-2.57-1.29-3.58-2.3
	C6.2,9.78,5.42,8.56,4.91,7.21C4.87,7.1,4.85,6.98,4.87,6.86c0.02-0.12,0.06-0.23,0.14-0.32c0,0,1.07-1.35,1.09-1.36
	c0.14-0.14,0.21-0.32,0.21-0.52c0-0.19-0.08-0.38-0.21-0.52C6.08,4.12,4.85,2.52,4.85,2.52C4.71,2.4,4.53,2.33,4.34,2.34
	c-0.19,0-0.37,0.08-0.5,0.21L3.08,3.22c-3.77,4.53,7.77,15.42,11.74,11.67l0.61-0.7c0.14-0.13,0.23-0.31,0.24-0.51
	C15.67,13.49,15.6,13.3,15.48,13.15z"/>
</svg>
